<?xml version="1.0" encoding="utf-8"?>
<!-- Generator: Adobe Illustrator 16.0.0, SVG Export Plug-In . SVG Version: 6.00 Build 0)  -->
<!DOCTYPE svg PUBLIC "-//W3C//DTD SVG 1.1//EN" "http://www.w3.org/Graphics/SVG/1.1/DTD/svg11.dtd">
<svg version="1.1" id="Layer_1" xmlns="http://www.w3.org/2000/svg" xmlns:xlink="http://www.w3.org/1999/xlink" x="0px" y="0px"
	 width="400px" height="159px" viewBox="0 0 400 159" style="enable-background:new 0 0 400 159;" xml:space="preserve">
<style type="text/css">
<![CDATA[
	.st0{opacity:0.6;fill:#FFFFFF;}
	.st1{opacity:0.8;fill:none;stroke:#FFFFFF;stroke-miterlimit:10;}
	.st2{opacity:0.8;fill:none;stroke:#000000;stroke-width:4;stroke-miterlimit:10;}
	.st3{opacity:0.6;stroke:#FFFFFF;stroke-miterlimit:10;}
	.st4{opacity:0.6;}
	.st5{opacity:0.8;}
	.st6{fill:none;stroke:#000000;stroke-miterlimit:10;}
	.st7{opacity:0.6;fill:#FFFFFF;stroke:#FFFFFF;stroke-miterlimit:10;}
	.st8{stroke:#000000;stroke-miterlimit:10;}
	.st9{opacity:0.2;fill:#FFFFFF;stroke:#FFFFFF;stroke-miterlimit:10;}
	.st10{opacity:0.2;stroke:#FFFFFF;stroke-miterlimit:10;}
]]>
</style>
<rect x="-15.5" y="162.5" class="st8" width="430" height="179"/>
<path class="st6" d="M30.5,45.6"/>
<path class="st3" d="M69.9,11.1L0.7,80.3L70,80.4L69.9,11.1z M18.5,72.7l19.2-19.2l19.1,19.1L18.5,72.7z M43.2,48l19.1-19.1l0,38.3
	L43.2,48z"/>
<path class="st3" d="M69.8,80.3l0.1,69.3l69.2-69.2L69.8,80.3z M77.8,132.1L78,93.7l19.1,19.1L77.8,132.1z M83.5,88.3l38.2,0
	l-19.1,19.1L83.5,88.3z"/>
<path class="st4" d="M147.6,73.1V12h16.9c21.5,0,32.3,9.9,32.3,29.8c0,9.4-3,17-9,22.7c-6,5.7-14,8.6-24,8.6H147.6z M154.8,18.5
	v48.2h9.1c8,0,14.2-2.1,18.7-6.4c4.5-4.3,6.7-10.4,6.7-18.2c0-15.7-8.3-23.5-25-23.5H154.8z"/>
<path class="st4" d="M243,53.1h-30.8c0.1,4.9,1.4,8.6,3.9,11.3c2.5,2.6,5.9,4,10.3,4c4.9,0,9.4-1.6,13.6-4.9V70
	c-3.8,2.8-8.9,4.2-15.2,4.2c-6.2,0-11-2-14.5-5.9s-5.3-9.5-5.3-16.7c0-6.8,1.9-12.3,5.8-16.6s8.6-6.4,14.3-6.4s10.1,1.8,13.3,5.5
	s4.7,8.8,4.7,15.4V53.1z M235.8,47.1c0-4-1-7.2-2.9-9.4c-1.9-2.2-4.6-3.4-8-3.4c-3.3,0-6.1,1.2-8.4,3.5c-2.3,2.4-3.7,5.4-4.3,9.2
	H235.8z"/>
<path class="st4" d="M250.9,71.6v-7.5c3.8,2.8,8,4.2,12.6,4.2c6.1,0,9.2-2,9.2-6.1c0-1.2-0.3-2.2-0.8-3s-1.2-1.5-2.1-2.2
	c-0.9-0.6-1.9-1.2-3.2-1.7s-2.5-1-3.9-1.6c-1.9-0.8-3.6-1.5-5.1-2.3c-1.5-0.8-2.7-1.7-3.7-2.6s-1.7-2.1-2.2-3.3
	c-0.5-1.3-0.7-2.7-0.7-4.4c0-2,0.5-3.9,1.4-5.4c0.9-1.6,2.2-2.9,3.8-4s3.3-1.9,5.3-2.4c2-0.5,4.1-0.8,6.2-0.8c3.8,0,7.2,0.7,10.1,2
	v7.1c-3.2-2.1-6.9-3.2-11.1-3.2c-1.3,0-2.5,0.1-3.5,0.4c-1.1,0.3-2,0.7-2.7,1.3c-0.8,0.5-1.3,1.2-1.7,1.9c-0.4,0.8-0.6,1.6-0.6,2.5
	c0,1.1,0.2,2.1,0.6,2.9c0.4,0.8,1,1.4,1.8,2c0.8,0.6,1.8,1.1,2.9,1.6s2.4,1,3.9,1.6c1.9,0.7,3.7,1.5,5.2,2.3
	c1.5,0.8,2.8,1.7,3.9,2.6c1.1,1,1.9,2.1,2.5,3.4s0.9,2.8,0.9,4.6c0,2.2-0.5,4-1.4,5.6c-1,1.6-2.2,2.9-3.8,4
	c-1.6,1.1-3.4,1.8-5.5,2.3c-2.1,0.5-4.2,0.8-6.5,0.8C258.1,74.2,254.2,73.3,250.9,71.6z"/>
<path class="st4" d="M294.2,18.4c-1.3,0-2.3-0.4-3.2-1.3c-0.9-0.9-1.3-1.9-1.3-3.2s0.4-2.4,1.3-3.3c0.9-0.9,1.9-1.3,3.2-1.3
	c1.3,0,2.4,0.4,3.3,1.3c0.9,0.9,1.3,2,1.3,3.3c0,1.3-0.4,2.3-1.3,3.2C296.5,18,295.4,18.4,294.2,18.4z M297.6,73.1h-7V29.5h7V73.1z"
	/>
<path class="st4" d="M349,69.6c0,16-7.7,24-23,24c-5.4,0-10.1-1-14.2-3.1v-7c4.9,2.7,9.6,4.1,14.1,4.1c10.7,0,16.1-5.7,16.1-17.1
	v-4.8h-0.2c-3.3,5.6-8.3,8.4-15,8.4c-5.4,0-9.8-1.9-13.1-5.8s-5-9.1-5-15.6c0-7.4,1.8-13.3,5.3-17.7c3.6-4.4,8.4-6.6,14.6-6.6
	c5.9,0,10.2,2.4,13.1,7.1h0.2v-6.1h7V69.6z M342,53.4V47c0-3.5-1.2-6.4-3.5-8.9c-2.3-2.5-5.3-3.7-8.8-3.7c-4.3,0-7.7,1.6-10.1,4.7
	c-2.4,3.1-3.7,7.5-3.7,13.2c0,4.9,1.2,8.7,3.5,11.7c2.3,2.9,5.4,4.4,9.3,4.4c3.9,0,7.1-1.4,9.6-4.2C340.7,61.3,342,57.7,342,53.4z"
	/>
<path class="st4" d="M399.3,73.1h-7V48.2c0-9.3-3.4-13.9-10.1-13.9c-3.5,0-6.4,1.3-8.7,3.9c-2.3,2.6-3.4,5.9-3.4,10v24.9h-7V29.5h7
	v7.2h0.2c3.3-5.5,8.1-8.3,14.3-8.3c4.8,0,8.4,1.5,11,4.6c2.5,3.1,3.8,7.5,3.8,13.4V73.1z"/>
<line class="st6" x1="90.6" y1="51.8" x2="90.6" y2="51.8"/>
<polyline class="st2" points="77,12 131.9,12 77.8,73 133,73 "/>
<polygon class="st10" points="84.5,54.4 84.5,20.5 114.5,20.5 "/>
<polygon class="st10" points="126.5,31.2 126.5,65.5 95.3,65.5 "/>
<g class="st5">
	<path class="st6" d="M19.6,185"/>
	<path class="st7" d="M29.5,176.4l-17.3,17.3l17.3,0L29.5,176.4z M16.6,191.8l4.8-4.8l4.8,4.8L16.6,191.8z M22.8,185.6l4.8-4.8
		l0,9.6L22.8,185.6z"/>
	<path class="st7" d="M29.5,193.6l0,17.3l17.3-17.3L29.5,193.6z M31.5,206.6l0-9.6l4.8,4.8L31.5,206.6z M32.9,195.6l9.6,0l-4.8,4.8
		L32.9,195.6z"/>
	<path class="st0" d="M48.9,191.9v-15.3h4.2c5.4,0,8.1,2.5,8.1,7.4c0,2.4-0.7,4.3-2.2,5.7c-1.5,1.4-3.5,2.1-6,2.1H48.9z M50.7,178.2
		v12H53c2,0,3.6-0.5,4.7-1.6c1.1-1.1,1.7-2.6,1.7-4.6c0-3.9-2.1-5.9-6.2-5.9H50.7z"/>
	<path class="st0" d="M72.7,186.8H65c0,1.2,0.4,2.2,1,2.8s1.5,1,2.6,1c1.2,0,2.4-0.4,3.4-1.2v1.6c-1,0.7-2.2,1-3.8,1
		c-1.5,0-2.8-0.5-3.6-1.5s-1.3-2.4-1.3-4.2c0-1.7,0.5-3.1,1.4-4.2s2.2-1.6,3.6-1.6s2.5,0.5,3.3,1.4c0.8,0.9,1.2,2.2,1.2,3.8V186.8z
		 M71,185.4c0-1-0.3-1.8-0.7-2.4s-1.1-0.8-2-0.8c-0.8,0-1.5,0.3-2.1,0.9c-0.6,0.6-0.9,1.4-1.1,2.3H71z"/>
	<path class="st0" d="M74.7,191.5v-1.9c1,0.7,2,1.1,3.1,1.1c1.5,0,2.3-0.5,2.3-1.5c0-0.3-0.1-0.5-0.2-0.7c-0.1-0.2-0.3-0.4-0.5-0.5
		c-0.2-0.2-0.5-0.3-0.8-0.4c-0.3-0.1-0.6-0.3-1-0.4c-0.5-0.2-0.9-0.4-1.3-0.6c-0.4-0.2-0.7-0.4-0.9-0.7s-0.4-0.5-0.6-0.8
		c-0.1-0.3-0.2-0.7-0.2-1.1c0-0.5,0.1-1,0.4-1.4c0.2-0.4,0.5-0.7,0.9-1s0.8-0.5,1.3-0.6c0.5-0.1,1-0.2,1.6-0.2
		c0.9,0,1.8,0.2,2.5,0.5v1.8c-0.8-0.5-1.7-0.8-2.8-0.8c-0.3,0-0.6,0-0.9,0.1c-0.3,0.1-0.5,0.2-0.7,0.3c-0.2,0.1-0.3,0.3-0.4,0.5
		c-0.1,0.2-0.2,0.4-0.2,0.6c0,0.3,0.1,0.5,0.2,0.7c0.1,0.2,0.3,0.4,0.5,0.5s0.4,0.3,0.7,0.4c0.3,0.1,0.6,0.3,1,0.4
		c0.5,0.2,0.9,0.4,1.3,0.6c0.4,0.2,0.7,0.4,1,0.7c0.3,0.2,0.5,0.5,0.6,0.8c0.1,0.3,0.2,0.7,0.2,1.1c0,0.5-0.1,1-0.4,1.4
		c-0.2,0.4-0.6,0.7-1,1c-0.4,0.3-0.9,0.5-1.4,0.6c-0.5,0.1-1.1,0.2-1.6,0.2C76.5,192.1,75.5,191.9,74.7,191.5z"/>
	<path class="st0" d="M85.5,178.2c-0.3,0-0.6-0.1-0.8-0.3s-0.3-0.5-0.3-0.8s0.1-0.6,0.3-0.8c0.2-0.2,0.5-0.3,0.8-0.3
		c0.3,0,0.6,0.1,0.8,0.3c0.2,0.2,0.3,0.5,0.3,0.8c0,0.3-0.1,0.6-0.3,0.8C86.1,178.1,85.9,178.2,85.5,178.2z M86.4,191.9h-1.7V181
		h1.7V191.9z"/>
	<path class="st0" d="M99.2,191c0,4-1.9,6-5.8,6c-1.3,0-2.5-0.3-3.5-0.8v-1.7c1.2,0.7,2.4,1,3.5,1c2.7,0,4-1.4,4-4.3V190h0
		c-0.8,1.4-2.1,2.1-3.8,2.1c-1.4,0-2.4-0.5-3.3-1.5c-0.8-1-1.2-2.3-1.2-3.9c0-1.9,0.4-3.3,1.3-4.4c0.9-1.1,2.1-1.6,3.7-1.6
		c1.5,0,2.6,0.6,3.3,1.8h0V181h1.7V191z M97.5,186.9v-1.6c0-0.9-0.3-1.6-0.9-2.2s-1.3-0.9-2.2-0.9c-1.1,0-1.9,0.4-2.5,1.2
		c-0.6,0.8-0.9,1.9-0.9,3.3c0,1.2,0.3,2.2,0.9,2.9c0.6,0.7,1.4,1.1,2.3,1.1c1,0,1.8-0.3,2.4-1C97.2,188.9,97.5,188,97.5,186.9z"/>
	<path class="st0" d="M111.8,191.9h-1.7v-6.2c0-2.3-0.8-3.5-2.5-3.5c-0.9,0-1.6,0.3-2.2,1c-0.6,0.7-0.9,1.5-0.9,2.5v6.2h-1.7V181
		h1.7v1.8h0c0.8-1.4,2-2.1,3.6-2.1c1.2,0,2.1,0.4,2.7,1.2s0.9,1.9,0.9,3.3V191.9z"/>
	<line class="st6" x1="34.6" y1="186.5" x2="34.6" y2="186.5"/>
	<polyline class="st1" points="32,176.5 46,176.5 32.4,191.5 46,191.5 	"/>
	<polygon class="st9" points="32.5,187.2 32.5,178.5 39.6,178.5 	"/>
	<polygon class="st9" points="45.5,181.4 45.5,189.5 37.8,189.5 	"/>
</g>
<g>
	<text transform="matrix(1 0 0 1 0 185.4365)" style="fill:#7A7A7A; font-family:'SegoeUIEmoji'; font-size:12;">©</text>
</g>
</svg>
